<svg id="eQ37gdwx61E1" xmlns="http://www.w3.org/2000/svg" xmlns:xlink="http://www.w3.org/1999/xlink" viewBox="0 0 300 300" shape-rendering="geometricPrecision" text-rendering="geometricPrecision" project-id="7a0f453aaa8e44cc8cc929b08fdba18b" export-id="48286c4db3a1445282b891719f8e08be" cached="false"><polygon points="50,23.15 19,76.85 81,76.85 50,23.15" transform="matrix(3.889649 0 0 4.621622-44.836431-81.0811)" fill="#27415b"/><rect width="46" height="46" rx="0" ry="0" transform="matrix(1.279244-.710906 1.308362 2.354341 120.145371 135.365135)" fill="#e97133"/><line x1="22.83" y1="50" x2="77.17" y2="50" transform="matrix(1.204316 2.193498-.876571 0.481272 126.008701 50.328962)" fill="none" stroke="#090909" stroke-width="7" stroke-linecap="round" stroke-miterlimit="10"/><line x1="22.83" y1="50" x2="77.17" y2="50" transform="matrix(1.309129 0 0-1 149.772907 298.148361)" fill="none" stroke="#090909" stroke-width="7" stroke-linecap="round" stroke-miterlimit="10"/><polygon points="50,23.15 19,76.85 81,76.85 50,23.15" transform="matrix(1.298497 0.004716-.005857 1.612904 85.453341-15.830285)" fill="#e97133"/><polygon points="50,23.15 19,76.85 81,76.85 50,23.15" transform="matrix(.705046 1.095619-.989686 0.636877 172.650721 37.84533)" fill="#e97133"/><polygon points="50,23.15 19,76.85 81,76.85 50,23.15" transform="matrix(.471979 0.88161-.88161 0.471979 168.458746 62.829027)" fill="#e97133"/><polygon points="50,23.15 19,76.85 81,76.85 50,23.15" transform="matrix(.241726 0 0 0.287648 100.565565 95.73008)" fill="#e97133"/><rect width="46" height="46" rx="0" ry="0" transform="matrix(.900235-.435404 1.337888 2.766196 142.249191 116.476647)" fill="#e97133"/><polygon points="50,23.15 19,76.85 81,76.85 50,23.15" transform="matrix(.854759-.011502 0.013684 1.016992 185.309514 166.440592)" fill="#e97133"/><polygon points="50,23.15 19,76.85 81,76.85 50,23.15" transform="matrix(-.564886-.899206 0.846776-.531949 187.772229 301.67035)" fill="#e97133"/></svg>
